name Walk2.mot
datacolumns 19
datarows 20
range 1.65000000 1.74500000
endheader

                time	   L_ground_force_vx	   L_ground_force_vy	   L_ground_force_vz	   L_ground_force_px	   L_ground_force_py	   L_ground_force_pz	   R_ground_force_vx	   R_ground_force_vy	   R_ground_force_vz	   R_ground_force_px	   R_ground_force_py	   R_ground_force_pz	   L_ground_torque_x	   L_ground_torque_y	   L_ground_torque_z	   R_ground_torque_x	   R_ground_torque_y	   R_ground_torque_z	
          1.65000000	         13.88064514	        561.31169663	         37.78567788	         -0.35212470	          0.00000000	         -0.08460074	         -0.00000000	          0.00000000	         -0.00000000	          0.00000000	          0.00000000	          0.00000000	          0.00000000	         -0.45161415	          0.00000000	          0.00000000	          0.00000000	          0.00000000	
          1.65500000	         15.54141296	        567.12742125	         38.77912263	         -0.35104793	          0.00000000	         -0.08480598	         -0.00000000	          0.00000000	          0.00000000	          0.00000000	          0.00000000	          0.00000000	          0.00000000	         -0.46556296	          0.00000000	          0.00000000	         -0.00000000	          0.00000000	
          1.66000000	         17.30558213	        573.13041224	         39.77249982	         -0.35004628	          0.00000000	         -0.08493473	          0.00000000	          0.00000000	          0.00000000	         -0.00000000	          0.00000000	         -0.00000000	          0.00000000	         -0.47709546	          0.00000000	          0.00000000	         -0.00000000	          0.00000000	
          1.66500000	         19.35524501	        578.85538404	         40.68891833	         -0.34908399	          0.00000000	         -0.08514849	          0.00000000	         -0.00000000	          0.00000000	         -0.00000000	          0.00000000	         -0.00000000	          0.00000000	         -0.48063176	          0.00000000	          0.00000000	         -0.00000000	          0.00000000	
          1.67000000	         21.65724111	        585.57236695	         41.58685705	         -0.34813029	          0.00000000	         -0.08520541	          0.00000000	         -0.00000000	         -0.00000000	         -0.00000000	          0.00000000	         -0.00000000	          0.00000000	         -0.50259519	          0.00000000	          0.00000000	          0.00000000	          0.00000000	
          1.67500000	         24.02650636	        593.59983847	         42.53607378	         -0.34720934	          0.00000000	         -0.08512765	         -0.00000000	         -0.00000000	         -0.00000000	          0.00000000	          0.00000000	          0.00000000	          0.00000000	         -0.54012129	          0.00000000	          0.00000000	          0.00000000	          0.00000000	
          1.68000000	         26.28814178	        602.02654710	         43.46243453	         -0.34618986	          0.00000000	         -0.08530492	         -0.00000000	          0.00000000	         -0.00000000	          0.00000000	          0.00000000	          0.00000000	          0.00000000	         -0.56497749	          0.00000000	          0.00000000	         -0.00000000	          0.00000000	
          1.68500000	         28.45777213	        610.62545856	         44.39385203	         -0.34519854	          0.00000000	         -0.08558892	         -0.00000000	          0.00000000	          0.00000000	          0.00000000	          0.00000000	          0.00000000	          0.00000000	         -0.58321435	          0.00000000	          0.00000000	         -0.00000000	          0.00000000	
          1.69000000	         30.57803824	        619.34491240	         45.33387678	         -0.34427933	          0.00000000	         -0.08558416	          0.00000000	         -0.00000000	          0.00000000	         -0.00000000	          0.00000000	         -0.00000000	          0.00000000	         -0.63441999	          0.00000000	          0.00000000	         -0.00000000	          0.00000000	
          1.69500000	         32.59118251	        628.38361468	         46.16017526	         -0.34328461	          0.00000000	         -0.08548436	          0.00000000	         -0.00000003	          0.00000000	         -0.00000000	          0.00000000	         -0.00000000	          0.00000000	         -0.68802433	          0.00000000	          0.00000000	          0.00000000	          0.00000000	
          1.70000000	         34.54975085	        637.53600759	         46.85034606	         -0.34239798	          0.00000000	         -0.08550925	         -0.00000000	         -0.00000006	         -0.00000000	          0.00000000	          0.00000000	         -0.00000000	          0.00000000	         -0.71418955	          0.00000000	          0.00000000	          0.00000000	          0.00000000	
          1.70500000	         36.67571732	        646.87341439	         47.46507398	         -0.34162847	          0.00000000	         -0.08552195	         -0.00000000	          0.00000009	         -0.00000001	          0.00000000	          0.00000000	          0.00000000	          0.00000000	         -0.75998713	          0.00000000	          0.00000000	          0.00000000	          0.00000000	
          1.71000000	         39.11150100	        656.58771632	         48.01665368	         -0.34082705	          0.00000000	         -0.08545752	         -0.00000001	          0.00000078	          0.00000000	          0.00000000	          0.00000000	          0.00000000	          0.00000000	         -0.85758916	          0.00000000	          0.00000000	         -0.00000000	          0.00000000	
          1.71500000	         41.79037778	        665.99610611	         48.43470607	         -0.34002897	          0.00000000	         -0.08533417	          0.00000001	          0.00000120	          0.00000007	         -0.00000000	          0.00000000	         -0.00000000	          0.00000000	         -0.94973100	          0.00000000	          0.00000000	         -0.00000000	          0.00000000	
          1.72000000	         44.70386710	        674.61227008	         48.73372147	         -0.33930670	          0.00000000	         -0.08513796	          0.00000012	         -0.00000407	          0.00000015	         -0.00000001	          0.00000000	         -0.00000001	          0.00000000	         -1.02516701	          0.00000000	          0.00000000	         -0.00000000	          0.00000000	
          1.72500000	         47.79634225	        682.23457664	         48.89668482	         -0.33860622	          0.00000000	         -0.08497677	          0.00000017	         -0.00002165	         -0.00000024	         -0.00000001	          0.00000000	         -0.00000001	          0.00000000	         -1.10500572	          0.00000000	          0.00000000	          0.00000001	          0.00000000	
          1.73000000	         50.91647155	        689.12132931	         48.90241796	         -0.33787045	          0.00000000	         -0.08485755	         -0.00000065	         -0.00001866	         -0.00000203	          0.00000003	          0.00000000	          0.00000002	          0.00000000	         -1.15522927	          0.00000000	          0.00000000	          0.00000002	          0.00000000	
          1.73500000	         54.15251878	        695.11140356	         48.78385500	         -0.33722280	          0.00000000	         -0.08463544	         -0.00000324	          0.00015107	         -0.00000308	          0.00000018	          0.00000000	          0.00000015	          0.00000000	         -1.19929268	          0.00000000	          0.00000000	         -0.00000000	          0.00000000	
          1.74000000	         57.65265076	        699.95099790	         48.63009703	         -0.33666689	          0.00000000	         -0.08435371	         -0.00000245	          0.00056398	          0.00001071	          0.00000020	          0.00000000	          0.00000018	          0.00000000	         -1.24842795	          0.00000000	          0.00000000	         -0.00000022	          0.00000000	
          1.74500000	         61.36495753	        703.25756226	         48.46447308	         -0.33610687	          0.00000000	         -0.08416419	          0.00002350	          0.00007134	          0.00005618	         -0.00000118	          0.00000000	         -0.00000091	          0.00000000	         -1.28555638	          0.00000000	          0.00000000	         -0.00000051	          0.00000000	
